<svg width="24" height="25" viewBox="0 0 24 25" fill="none" xmlns="http://www.w3.org/2000/svg">
    <path fill-rule="evenodd" clip-rule="evenodd"
        d="M12.75 4.47754C12.75 4.06333 12.4142 3.72754 12 3.72754C11.5858 3.72754 11.25 4.06333 11.25 4.47754V11.7275H4C3.58579 11.7275 3.25 12.0633 3.25 12.4775C3.25 12.8918 3.58579 13.2275 4 13.2275H11.25V20.4775C11.25 20.8918 11.5858 21.2275 12 21.2275C12.4142 21.2275 12.75 20.8918 12.75 20.4775V13.2275H20C20.4142 13.2275 20.75 12.8918 20.75 12.4775C20.75 12.0633 20.4142 11.7275 20 11.7275H12.75V4.47754Z"
        fill="#3C7EFF" />
</svg>