<svg width="33" height="33" viewBox="0 0 33 33" fill="none" xmlns="http://www.w3.org/2000/svg">
<path fill-rule="evenodd" clip-rule="evenodd" d="M10.9615 3.72656C10.4744 3.72656 10.0582 4.07751 9.97588 4.5576L9.43263 7.72656H7.49483L4.1615 7.72656C3.60921 7.72656 3.1615 8.17428 3.1615 8.72656C3.1615 9.27885 3.60921 9.72656 4.1615 9.72656H6.55928L7.83038 28.7931C7.8654 29.3184 8.3017 29.7266 8.82817 29.7266L23.4948 29.7266C24.0213 29.7266 24.4576 29.3184 24.4926 28.7931L25.7637 9.72656H28.1615C28.7138 9.72656 29.1615 9.27885 29.1615 8.72656C29.1615 8.17428 28.7138 7.72656 28.1615 7.72656L24.8282 7.72656H22.8904L22.3471 4.5576C22.2648 4.07751 21.8486 3.72656 21.3615 3.72656L10.9615 3.72656ZM20.8612 7.72656L20.5183 5.72656L11.8047 5.72656L11.4618 7.72656L20.8612 7.72656ZM23.7593 9.72656L8.56372 9.72656L9.76372 27.7266L22.5593 27.7266L23.7593 9.72656ZM11.8282 23.3932C11.8282 22.8409 12.2759 22.3932 12.8282 22.3932L19.4948 22.3932C20.0471 22.3932 20.4948 22.8409 20.4948 23.3932C20.4948 23.9455 20.0471 24.3932 19.4948 24.3932L12.8282 24.3932C12.2759 24.3932 11.8282 23.9455 11.8282 23.3932Z" fill="white" fill-opacity="0.7"/>
</svg>
