<svg width="25" height="24" viewBox="0 0 25 24" fill="none" xmlns="http://www.w3.org/2000/svg">
<path fill-rule="evenodd" clip-rule="evenodd" d="M6.3283 4.46967C6.03541 4.17678 5.56054 4.17678 5.26764 4.46967C4.97475 4.76256 4.97475 5.23744 5.26764 5.53033L11.7373 12L5.26764 18.4697C4.97475 18.7626 4.97475 19.2374 5.26764 19.5303C5.56054 19.8232 6.03541 19.8232 6.3283 19.5303L12.798 13.0607L19.2676 19.5303C19.5605 19.8232 20.0354 19.8232 20.3283 19.5303C20.6212 19.2374 20.6212 18.7626 20.3283 18.4697L13.8586 12L20.3283 5.53033C20.6212 5.23744 20.6212 4.76256 20.3283 4.46967C20.0354 4.17678 19.5605 4.17678 19.2676 4.46967L12.798 10.9393L6.3283 4.46967Z" fill="#3C7EFF"/>
</svg>
