<svg width="33" height="33" viewBox="0 0 33 33" fill="none" xmlns="http://www.w3.org/2000/svg">
<path fill-rule="evenodd" clip-rule="evenodd" d="M14.4948 6.06022C14.4948 5.57676 14.149 5.16253 13.6733 5.07627C13.1976 4.99001 12.7283 5.25642 12.5585 5.7091L4.55852 27.0424C4.44336 27.3495 4.48611 27.6936 4.67292 27.9632C4.85974 28.2327 5.16687 28.3936 5.49485 28.3936L13.4948 28.3936C14.0471 28.3936 14.4948 27.9458 14.4948 27.3936L14.4948 6.06022ZM12.4948 26.3936L6.93785 26.3936L12.4948 11.5749L12.4948 26.3936ZM17.8282 6.06022C17.8282 5.57676 18.1741 5.16253 18.6498 5.07627C19.1255 4.99 19.5948 5.25642 19.7645 5.7091L27.7645 27.0424C27.8797 27.3495 27.8369 27.6936 27.6501 27.9631C27.4633 28.2327 27.1562 28.3936 26.8282 28.3936L18.8282 28.3936C18.2759 28.3936 17.8282 27.9458 17.8282 27.3936L17.8282 6.06022ZM19.8282 26.3936L25.3852 26.3936L19.8282 11.5749L19.8282 26.3936Z" fill="white" fill-opacity="0.7"/>
</svg>
